<?xml version="1.0" encoding="utf-8" standalone="no"?>
<!DOCTYPE svg PUBLIC "-//W3C//DTD SVG 1.1//EN"
  "http://www.w3.org/Graphics/SVG/1.1/DTD/svg11.dtd">
<!-- Created with matplotlib (http://matplotlib.org/) -->
<svg height="576pt" version="1.1" viewBox="0 0 561 576" width="561pt" xmlns="http://www.w3.org/2000/svg" xmlns:xlink="http://www.w3.org/1999/xlink">
 <defs>
  <style type="text/css">
*{stroke-linecap:butt;stroke-linejoin:round;}
  </style>
 </defs>
 <g id="figure_1">
  <g id="patch_1">
   <path d="
M0 576
L561.6 576
L561.6 0
L0 0
z
" style="fill:#ffffff;"/>
  </g>
  <g id="axes_1">
   <g id="patch_2">
    <path d="
M55.1053 249.12
L545.813 249.12
L545.813 18.36
L55.1053 18.36
z
" style="fill:#ffffff;"/>
   </g>
   <g id="line2d_1">
    <path clip-path="url(#p376806e7c1)" d="
M67.373 168.477
L79.6407 143.656
L91.9084 127.595
L104.176 118.962
L116.444 111.532
L128.712 106.309
L140.979 102.834
L153.247 99.3528
L165.515 96.7675
L177.782 94.9736
L190.05 92.8851
L202.318 91.4392
L214.585 89.9758
L226.853 89.4946
L239.121 88.8879
L251.389 87.6035
L263.656 88.1739
L275.924 86.7092
L288.192 86.275
L300.459 86.3837
L312.727 84.7962
L324.995 85.3539
L337.262 84.668
L349.53 83.8516
L361.798 84.3153
L374.066 82.1762
L386.333 83.0686
L398.601 82.968
L410.869 82.5524
L423.136 82.9673
L435.404 82.8755
L447.672 81.9551
L459.94 82.7296
L472.207 82.2019
L484.475 81.7402
L496.743 81.9924
L509.01 82.2735
L521.278 81.2892
L533.546 81.736
L545.813 81.7835" style="fill:none;stroke:#000000;stroke-linecap:square;stroke-width:1.5;"/>
   </g>
   <g id="line2d_2">
    <path clip-path="url(#p376806e7c1)" d="
M67.373 35.0668
L79.6407 141.024
L91.9084 195.235
L104.176 214.556
L116.444 207.864
L128.712 193.977
L140.979 181.314
L153.247 169.665
L165.515 161.017
L177.782 153.188
L190.05 146.567
L202.318 140.54
L214.585 135.385
L226.853 131.593
L239.121 127.722
L251.389 124.371
L263.656 121.842
L275.924 118.872
L288.192 116.313
L300.459 114.095
L312.727 111.766
L324.995 110.4
L337.262 108.279
L349.53 106.478
L361.798 105.628
L374.066 103.118
L386.333 102.459
L398.601 101.437
L410.869 100.105
L423.136 99.4282
L435.404 98.4654
L447.672 97.3163
L459.94 96.7809
L472.207 95.7199
L484.475 94.9025
L496.743 94.3491
L509.01 93.9262
L521.278 92.7376
L533.546 92.3254
L545.813 91.839" style="fill:none;stroke:#0000ff;stroke-linecap:square;stroke-width:1.5;"/>
   </g>
   <g id="line2d_3">
    <path clip-path="url(#p376806e7c1)" d="
M67.373 -212.824
M86.2888 -1
L91.9084 39.4242
L104.176 93.5456
L116.444 131.868
L128.712 160.033
L140.979 181.81
L153.247 198.738
L165.515 211
L177.782 220.907
L190.05 226.593
L202.318 229.662
L214.585 229.539
L226.853 227.09
L239.121 223.644
L251.389 220.45
L263.656 217.072
L275.924 213.805
L288.192 210.489
L300.459 207.399
L312.727 204.799
L324.995 202.591
L337.262 199.92
L349.53 197.698
L361.798 196.211
L374.066 193.55
L386.333 192.168
L398.601 190.714
L410.869 189.017
L423.136 187.762
L435.404 186.407
L447.672 185.106
L459.94 183.946
L472.207 182.667
L484.475 181.642
L496.743 180.681
L509.01 179.889
L521.278 178.667
L533.546 177.796
L545.813 177.074" style="fill:none;stroke:#ff0000;stroke-linecap:square;stroke-width:1.5;"/>
   </g>
   <g id="line2d_4">
    <path clip-path="url(#p376806e7c1)" d="
M67.373 -315.618
M97.3126 -1
L104.176 33.2841
L116.444 76.4827
L128.712 108.441
L140.979 133.316
L153.247 153.281
L165.515 168.119
L177.782 181.315
L190.05 191.571
L202.318 201.282
L214.585 209.602
L226.853 215.446
L239.121 221.436
L251.389 225.99
L263.656 229.631
L275.924 232.664
L288.192 234.764
L300.459 235.985
L312.727 235.779
L324.995 235.275
L337.262 234.185
L349.53 232.713
L361.798 231.593
L374.066 229.361
L386.333 228.036
L398.601 226.711
L410.869 225.114
L423.136 223.746
L435.404 222.388
L447.672 221.11
L459.94 219.846
L472.207 218.559
L484.475 217.513
L496.743 216.446
L509.01 215.567
L521.278 214.37
L533.546 213.362
L545.813 212.579" style="fill:none;stroke:#bf00bf;stroke-linecap:square;stroke-width:1.5;"/>
   </g>
   <g id="line2d_5">
    <path clip-path="url(#p376806e7c1)" d="
M67.373 -369.753
M103.702 -1
L104.176 1.50867
L116.444 47.1122
L128.712 80.8601
L140.979 107.118
L153.247 128.251
L165.515 143.921
L177.782 157.911
L190.05 168.91
L202.318 179.345
L214.585 188.311
L226.853 194.856
L239.121 201.711
L251.389 207.024
L263.656 211.877
L275.924 216.256
L288.192 220.463
L300.459 224.472
L312.727 227.08
L324.995 229.745
L337.262 232.74
L349.53 234.725
L361.798 236.273
L374.066 237.594
L386.333 238.437
L398.601 239.076
L410.869 239.257
L423.136 238.875
L435.404 238.468
L447.672 237.806
L459.94 237.149
L472.207 236.247
L484.475 235.467
L496.743 234.569
L509.01 233.85
L521.278 232.798
L533.546 231.859
L545.813 231.123" style="fill:none;stroke:#008000;stroke-linecap:square;stroke-width:1.5;"/>
   </g>
   <g id="line2d_6">
    <path clip-path="url(#p376806e7c1)" d="
M67.373 -402.388
M108.531 -1
L116.444 29.3183
L128.712 64.0939
L140.979 91.1373
L153.247 112.917
L165.515 129.04
L177.782 143.446
L190.05 154.807
L202.318 165.578
L214.585 174.817
L226.853 181.625
L239.121 188.764
L251.389 194.264
L263.656 199.401
L275.924 203.991
L288.192 208.501
L300.459 212.835
L312.727 215.753
L324.995 218.798
L337.262 222.26
L349.53 224.815
L361.798 226.898
L374.066 229.402
L386.333 231.246
L398.601 233.029
L410.869 234.818
L423.136 236.053
L435.404 237.383
L447.672 238.319
L459.94 239.532
L472.207 240.238
L484.475 240.725
L496.743 241.001
L509.01 241.266
L521.278 241.071
L533.546 240.856
L545.813 240.536" style="fill:none;stroke:#000000;stroke-dasharray:6.000000,6.000000;stroke-dashoffset:0.0;stroke-width:1.5;"/>
   </g>
   <g id="line2d_7">
    <path clip-path="url(#p376806e7c1)" d="
M67.373 195.661
L79.6407 195.009
L91.9084 196.338
L104.176 198.538
L116.444 199.945
L128.712 200.947
L140.979 202.877
L153.247 204.007
L165.515 204.868
L177.782 207.16
L190.05 206.238
L202.318 207.837
L214.585 207.848
L226.853 209.096
L239.121 210.106
L251.389 210.536
L263.656 212.502
L275.924 211.664
L288.192 212.306
L300.459 213.819
L312.727 213.408
L324.995 213.975
L337.262 214.896
L349.53 214.325
L361.798 215.065
L374.066 214.421
L386.333 215.808
L398.601 216.11
L410.869 216.402
L423.136 217.33
L435.404 217.505
L447.672 217.018
L459.94 217.793
L472.207 218.06
L484.475 217.294
L496.743 218.169
L509.01 218.706
L521.278 218.157
L533.546 218.763
L545.813 218.856" style="fill:none;stroke:#0000ff;stroke-dasharray:6.000000,6.000000;stroke-dashoffset:0.0;stroke-width:1.5;"/>
   </g>
   <g id="matplotlib.axis_1">
    <g id="xtick_1">
     <g id="line2d_8">
      <path clip-path="url(#p376806e7c1)" d="
M55.1053 249.12
L55.1053 18.36" style="fill:none;stroke:#000000;stroke-dasharray:1.000000,3.000000;stroke-dashoffset:0.0;stroke-width:0.5;"/>
     </g>
     <g id="line2d_9">
      <defs>
       <path d="
M0 0
L0 -4" id="m93b0483c22" style="stroke:#000000;stroke-width:0.5;"/>
      </defs>
      <g>
       <use style="stroke:#000000;stroke-width:0.5;" x="55.1053125" xlink:href="#m93b0483c22" y="249.12"/>
      </g>
     </g>
     <g id="line2d_10">
      <defs>
       <path d="
M0 0
L0 4" id="m741efc42ff" style="stroke:#000000;stroke-width:0.5;"/>
      </defs>
      <g>
       <use style="stroke:#000000;stroke-width:0.5;" x="55.1053125" xlink:href="#m741efc42ff" y="18.36"/>
      </g>
     </g>
     <g id="text_1">
      <!-- 0 -->
      <defs>
       <path d="
M4.15625 35.2969
Q4.15625 48 6.76562 55.7344
Q9.375 63.4844 14.5156 67.6719
Q19.6719 71.875 27.4844 71.875
Q33.25 71.875 37.5938 69.5469
Q41.9375 67.2344 44.7656 62.8594
Q47.6094 58.5 49.2188 52.2188
Q50.8281 45.9531 50.8281 35.2969
Q50.8281 22.7031 48.2344 14.9688
Q45.6562 7.23438 40.5 3
Q35.3594 -1.21875 27.4844 -1.21875
Q17.1406 -1.21875 11.2344 6.20312
Q4.15625 15.1406 4.15625 35.2969
M13.1875 35.2969
Q13.1875 17.6719 17.3125 11.8281
Q21.4375 6 27.4844 6
Q33.5469 6 37.6719 11.8594
Q41.7969 17.7188 41.7969 35.2969
Q41.7969 52.9844 37.6719 58.7812
Q33.5469 64.5938 27.3906 64.5938
Q21.3438 64.5938 17.7188 59.4688
Q13.1875 52.9375 13.1875 35.2969" id="ArialMT-30"/>
      </defs>
      <g transform="translate(52.305 261.709375)scale(0.12 -0.12)">
       <use xlink:href="#ArialMT-30"/>
      </g>
     </g>
    </g>
    <g id="xtick_2">
     <g id="line2d_11">
      <path clip-path="url(#p376806e7c1)" d="
M153.247 249.12
L153.247 18.36" style="fill:none;stroke:#000000;stroke-dasharray:1.000000,3.000000;stroke-dashoffset:0.0;stroke-width:0.5;"/>
     </g>
     <g id="line2d_12">
      <g>
       <use style="stroke:#000000;stroke-width:0.5;" x="153.2469375" xlink:href="#m93b0483c22" y="249.12"/>
      </g>
     </g>
     <g id="line2d_13">
      <g>
       <use style="stroke:#000000;stroke-width:0.5;" x="153.2469375" xlink:href="#m741efc42ff" y="18.36"/>
      </g>
     </g>
     <g id="text_2">
      <!-- 1 -->
      <defs>
       <path d="
M37.25 0
L28.4688 0
L28.4688 56
Q25.2969 52.9844 20.1406 49.9531
Q14.9844 46.9219 10.8906 45.4062
L10.8906 53.9062
Q18.2656 57.375 23.7812 62.2969
Q29.2969 67.2344 31.5938 71.875
L37.25 71.875
z
" id="ArialMT-31"/>
      </defs>
      <g transform="translate(151.665375 261.709375)scale(0.12 -0.12)">
       <use xlink:href="#ArialMT-31"/>
      </g>
     </g>
    </g>
    <g id="xtick_3">
     <g id="line2d_14">
      <path clip-path="url(#p376806e7c1)" d="
M251.389 249.12
L251.389 18.36" style="fill:none;stroke:#000000;stroke-dasharray:1.000000,3.000000;stroke-dashoffset:0.0;stroke-width:0.5;"/>
     </g>
     <g id="line2d_15">
      <g>
       <use style="stroke:#000000;stroke-width:0.5;" x="251.3885625" xlink:href="#m93b0483c22" y="249.12"/>
      </g>
     </g>
     <g id="line2d_16">
      <g>
       <use style="stroke:#000000;stroke-width:0.5;" x="251.3885625" xlink:href="#m741efc42ff" y="18.36"/>
      </g>
     </g>
     <g id="text_3">
      <!-- 2 -->
      <defs>
       <path d="
M50.3438 8.45312
L50.3438 0
L3.03125 0
Q2.9375 3.17188 4.04688 6.10938
Q5.85938 10.9375 9.82812 15.625
Q13.8125 20.3125 21.3438 26.4688
Q33.0156 36.0312 37.1094 41.625
Q41.2188 47.2188 41.2188 52.2031
Q41.2188 57.4219 37.4688 61
Q33.7344 64.5938 27.7344 64.5938
Q21.3906 64.5938 17.5781 60.7812
Q13.7656 56.9844 13.7188 50.25
L4.6875 51.1719
Q5.60938 61.2812 11.6562 66.5781
Q17.7188 71.875 27.9375 71.875
Q38.2344 71.875 44.2344 66.1562
Q50.25 60.4531 50.25 52
Q50.25 47.7031 48.4844 43.5469
Q46.7344 39.4062 42.6562 34.8125
Q38.5781 30.2188 29.1094 22.2188
Q21.1875 15.5781 18.9375 13.2031
Q16.7031 10.8438 15.2344 8.45312
z
" id="ArialMT-32"/>
      </defs>
      <g transform="translate(248.5441875 261.709375)scale(0.12 -0.12)">
       <use xlink:href="#ArialMT-32"/>
      </g>
     </g>
    </g>
    <g id="xtick_4">
     <g id="line2d_17">
      <path clip-path="url(#p376806e7c1)" d="
M349.53 249.12
L349.53 18.36" style="fill:none;stroke:#000000;stroke-dasharray:1.000000,3.000000;stroke-dashoffset:0.0;stroke-width:0.5;"/>
     </g>
     <g id="line2d_18">
      <g>
       <use style="stroke:#000000;stroke-width:0.5;" x="349.5301875" xlink:href="#m93b0483c22" y="249.12"/>
      </g>
     </g>
     <g id="line2d_19">
      <g>
       <use style="stroke:#000000;stroke-width:0.5;" x="349.5301875" xlink:href="#m741efc42ff" y="18.36"/>
      </g>
     </g>
     <g id="text_4">
      <!-- 3 -->
      <defs>
       <path d="
M4.20312 18.8906
L12.9844 20.0625
Q14.5 12.5938 18.1406 9.29688
Q21.7812 6 27 6
Q33.2031 6 37.4688 10.2969
Q41.75 14.5938 41.75 20.9531
Q41.75 27 37.7969 30.9219
Q33.8438 34.8594 27.7344 34.8594
Q25.25 34.8594 21.5312 33.8906
L22.5156 41.6094
Q23.3906 41.5 23.9219 41.5
Q29.5469 41.5 34.0312 44.4219
Q38.5312 47.3594 38.5312 53.4688
Q38.5312 58.2969 35.25 61.4688
Q31.9844 64.6562 26.8125 64.6562
Q21.6875 64.6562 18.2656 61.4219
Q14.8438 58.2031 13.875 51.7656
L5.07812 53.3281
Q6.6875 62.1562 12.3906 67.0156
Q18.1094 71.875 26.6094 71.875
Q32.4688 71.875 37.3906 69.3594
Q42.3281 66.8438 44.9375 62.5
Q47.5625 58.1562 47.5625 53.2656
Q47.5625 48.6406 45.0625 44.8281
Q42.5781 41.0156 37.7031 38.7656
Q44.0469 37.3125 47.5625 32.6875
Q51.0781 28.0781 51.0781 21.1406
Q51.0781 11.7656 44.2344 5.25
Q37.4062 -1.26562 26.9531 -1.26562
Q17.5312 -1.26562 11.2969 4.34375
Q5.07812 9.96875 4.20312 18.8906" id="ArialMT-33"/>
      </defs>
      <g transform="translate(346.7176875 261.709375)scale(0.12 -0.12)">
       <use xlink:href="#ArialMT-33"/>
      </g>
     </g>
    </g>
    <g id="xtick_5">
     <g id="line2d_20">
      <path clip-path="url(#p376806e7c1)" d="
M447.672 249.12
L447.672 18.36" style="fill:none;stroke:#000000;stroke-dasharray:1.000000,3.000000;stroke-dashoffset:0.0;stroke-width:0.5;"/>
     </g>
     <g id="line2d_21">
      <g>
       <use style="stroke:#000000;stroke-width:0.5;" x="447.6718125" xlink:href="#m93b0483c22" y="249.12"/>
      </g>
     </g>
     <g id="line2d_22">
      <g>
       <use style="stroke:#000000;stroke-width:0.5;" x="447.6718125" xlink:href="#m741efc42ff" y="18.36"/>
      </g>
     </g>
     <g id="text_5">
      <!-- 4 -->
      <defs>
       <path d="
M32.3281 0
L32.3281 17.1406
L1.26562 17.1406
L1.26562 25.2031
L33.9375 71.5781
L41.1094 71.5781
L41.1094 25.2031
L50.7812 25.2031
L50.7812 17.1406
L41.1094 17.1406
L41.1094 0
z

M32.3281 25.2031
L32.3281 57.4688
L9.90625 25.2031
z
" id="ArialMT-34"/>
      </defs>
      <g transform="translate(444.700875 261.709375)scale(0.12 -0.12)">
       <use xlink:href="#ArialMT-34"/>
      </g>
     </g>
    </g>
    <g id="xtick_6">
     <g id="line2d_23">
      <path clip-path="url(#p376806e7c1)" d="
M545.813 249.12
L545.813 18.36" style="fill:none;stroke:#000000;stroke-dasharray:1.000000,3.000000;stroke-dashoffset:0.0;stroke-width:0.5;"/>
     </g>
     <g id="line2d_24">
      <g>
       <use style="stroke:#000000;stroke-width:0.5;" x="545.8134375" xlink:href="#m93b0483c22" y="249.12"/>
      </g>
     </g>
     <g id="line2d_25">
      <g>
       <use style="stroke:#000000;stroke-width:0.5;" x="545.8134375" xlink:href="#m741efc42ff" y="18.36"/>
      </g>
     </g>
     <g id="text_6">
      <!-- 5 -->
      <defs>
       <path d="
M4.15625 18.75
L13.375 19.5312
Q14.4062 12.7969 18.1406 9.39062
Q21.875 6 27.1562 6
Q33.5 6 37.8906 10.7812
Q42.2812 15.5781 42.2812 23.4844
Q42.2812 31 38.0625 35.3438
Q33.8438 39.7031 27 39.7031
Q22.75 39.7031 19.3281 37.7656
Q15.9219 35.8438 13.9688 32.7656
L5.71875 33.8438
L12.6406 70.6094
L48.25 70.6094
L48.25 62.2031
L19.6719 62.2031
L15.8281 42.9688
Q22.2656 47.4688 29.3438 47.4688
Q38.7188 47.4688 45.1562 40.9688
Q51.6094 34.4688 51.6094 24.2656
Q51.6094 14.5469 45.9531 7.46875
Q39.0625 -1.21875 27.1562 -1.21875
Q17.3906 -1.21875 11.2031 4.25
Q5.03125 9.71875 4.15625 18.75" id="ArialMT-35"/>
      </defs>
      <g transform="translate(542.96625 261.709375)scale(0.12 -0.12)">
       <use xlink:href="#ArialMT-35"/>
      </g>
     </g>
    </g>
    <g id="text_7">
     <!-- Dirichlet symmetric prior $\alpha$ -->
     <defs>
      <path d="
M40.4375 19
L49.0781 17.875
Q47.6562 8.9375 41.8125 3.875
Q35.9844 -1.17188 27.4844 -1.17188
Q16.8438 -1.17188 10.375 5.78125
Q3.90625 12.75 3.90625 25.7344
Q3.90625 34.125 6.6875 40.4219
Q9.46875 46.7344 15.1562 49.875
Q20.8438 53.0312 27.5469 53.0312
Q35.9844 53.0312 41.3594 48.75
Q46.7344 44.4844 48.25 36.625
L39.7031 35.2969
Q38.4844 40.5312 35.375 43.1562
Q32.2812 45.7969 27.875 45.7969
Q21.2344 45.7969 17.0781 41.0312
Q12.9375 36.2812 12.9375 25.9844
Q12.9375 15.5312 16.9375 10.7969
Q20.9531 6.0625 27.3906 6.0625
Q32.5625 6.0625 36.0312 9.23438
Q39.5 12.4062 40.4375 19" id="ArialMT-63"/>
      <path d="
M20.125 -1.125
Q15.375 -1.125 11.6875 1.125
Q8.01562 3.375 6 7.17188
Q4 10.9844 4 15.8281
Q4 22.6094 7.78125 29.25
Q11.5781 35.8906 17.8438 40.0312
Q24.125 44.1875 31 44.1875
Q36.0781 44.1875 39.9375 41.5312
Q43.7969 38.875 45.7969 34.4531
Q47.7969 30.0312 47.7969 25
L47.9062 18.3125
Q51.3125 23.0469 53.6875 28.1406
Q56.0625 33.25 57.3281 38.7188
Q57.5156 39.3125 58.1094 39.3125
L59.2812 39.3125
Q60.2031 39.3125 60.2031 38.375
Q60.2031 38.2812 60.1094 38.0938
Q58.9375 33.5 57.1719 29.2656
Q55.4219 25.0469 53.0469 21.0938
Q50.6875 17.1406 47.9062 13.9219
Q47.9062 1.51562 50.7812 1.51562
Q52.6406 1.51562 53.8281 2.60938
Q55.0312 3.71875 55.9375 5.32812
Q56.8438 6.9375 57.0781 6.98438
L58.2969 6.98438
Q59.0781 6.98438 59.0781 6
Q59.0781 3.51562 56.2188 1.1875
Q53.375 -1.125 50.5938 -1.125
Q46.9688 -1.125 44.5781 1.21875
Q42.1875 3.5625 41.3125 7.32812
Q36.625 3.32812 31.1562 1.09375
Q25.6875 -1.125 20.125 -1.125
M20.3125 1.51562
Q31 1.51562 40.8281 10.2969
Q40.7656 10.8906 40.6719 11.7344
Q40.5781 12.5938 40.5781 12.7031
L40.5781 23.4844
Q40.5781 41.6094 30.8125 41.6094
Q24.9531 41.6094 20.5469 36.5938
Q16.1562 31.5938 13.9375 24.625
Q11.7188 17.6719 11.7188 11.9219
Q11.7188 7.5625 13.9375 4.53125
Q16.1562 1.51562 20.3125 1.51562" id="Cmmi10-ae"/>
      <path d="
M6.20312 -19.9688
L5.21875 -11.7188
Q8.10938 -12.5 10.25 -12.5
Q13.1875 -12.5 14.9375 -11.5156
Q16.7031 -10.5469 17.8281 -8.79688
Q18.6562 -7.46875 20.5156 -2.25
Q20.75 -1.51562 21.2969 -0.09375
L1.60938 51.8594
L11.0781 51.8594
L21.875 21.8281
Q23.9688 16.1094 25.6406 9.8125
Q27.1562 15.875 29.25 21.625
L40.3281 51.8594
L49.125 51.8594
L29.3906 -0.875
Q26.2188 -9.42188 24.4688 -12.6406
Q22.125 -17 19.0938 -19.0156
Q16.0625 -21.0469 11.8594 -21.0469
Q9.32812 -21.0469 6.20312 -19.9688" id="ArialMT-79"/>
      <path d="
M42.0938 16.7031
L51.1719 15.5781
Q49.0312 7.625 43.2188 3.21875
Q37.4062 -1.17188 28.375 -1.17188
Q17 -1.17188 10.3281 5.82812
Q3.65625 12.8438 3.65625 25.4844
Q3.65625 38.5781 10.3906 45.7969
Q17.1406 53.0312 27.875 53.0312
Q38.2812 53.0312 44.875 45.9531
Q51.4688 38.875 51.4688 26.0312
Q51.4688 25.25 51.4219 23.6875
L12.75 23.6875
Q13.2344 15.1406 17.5781 10.5938
Q21.9219 6.0625 28.4219 6.0625
Q33.25 6.0625 36.6719 8.59375
Q40.0938 11.1406 42.0938 16.7031
M13.2344 30.9062
L42.1875 30.9062
Q41.6094 37.4531 38.875 40.7188
Q34.6719 45.7969 27.9844 45.7969
Q21.9219 45.7969 17.7969 41.75
Q13.6719 37.7031 13.2344 30.9062" id="ArialMT-65"/>
      <path d="
M25.7812 7.85938
L27.0469 0.09375
Q23.3438 -0.6875 20.4062 -0.6875
Q15.625 -0.6875 12.9844 0.828125
Q10.3594 2.34375 9.28125 4.8125
Q8.20312 7.28125 8.20312 15.1875
L8.20312 45.0156
L1.76562 45.0156
L1.76562 51.8594
L8.20312 51.8594
L8.20312 64.7031
L16.9375 69.9688
L16.9375 51.8594
L25.7812 51.8594
L25.7812 45.0156
L16.9375 45.0156
L16.9375 14.7031
Q16.9375 10.9375 17.4062 9.85938
Q17.875 8.79688 18.9219 8.15625
Q19.9688 7.51562 21.9219 7.51562
Q23.3906 7.51562 25.7812 7.85938" id="ArialMT-74"/>
      <path d="
M6.64062 61.4688
L6.64062 71.5781
L15.4375 71.5781
L15.4375 61.4688
z

M6.64062 0
L6.64062 51.8594
L15.4375 51.8594
L15.4375 0
z
" id="ArialMT-69"/>
      <path d="
M6.59375 0
L6.59375 71.5781
L15.375 71.5781
L15.375 45.9062
Q21.5312 53.0312 30.9062 53.0312
Q36.6719 53.0312 40.9219 50.75
Q45.1719 48.4844 47 44.4844
Q48.8281 40.4844 48.8281 32.8594
L48.8281 0
L40.0469 0
L40.0469 32.8594
Q40.0469 39.4531 37.1875 42.4531
Q34.3281 45.4531 29.1094 45.4531
Q25.2031 45.4531 21.75 43.4219
Q18.3125 41.4062 16.8438 37.9375
Q15.375 34.4688 15.375 28.375
L15.375 0
z
" id="ArialMT-68"/>
      <path d="
M6.59375 -19.875
L6.59375 51.8594
L14.5938 51.8594
L14.5938 45.125
Q17.4375 49.0781 21 51.0469
Q24.5625 53.0312 29.6406 53.0312
Q36.2812 53.0312 41.3594 49.6094
Q46.4375 46.1875 49.0156 39.9531
Q51.6094 33.7344 51.6094 26.3125
Q51.6094 18.3594 48.75 11.9844
Q45.9062 5.60938 40.4531 2.21875
Q35.0156 -1.17188 29 -1.17188
Q24.6094 -1.17188 21.1094 0.6875
Q17.625 2.54688 15.375 5.375
L15.375 -19.875
z

M14.5469 25.6406
Q14.5469 15.625 18.5938 10.8438
Q22.6562 6.0625 28.4219 6.0625
Q34.2812 6.0625 38.4531 11.0156
Q42.625 15.9688 42.625 26.375
Q42.625 36.2812 38.5469 41.2031
Q34.4688 46.1406 28.8125 46.1406
Q23.1875 46.1406 18.8594 40.8906
Q14.5469 35.6406 14.5469 25.6406" id="ArialMT-70"/>
      <path d="
M7.71875 0
L7.71875 71.5781
L32.375 71.5781
Q40.7188 71.5781 45.125 70.5625
Q51.2656 69.1406 55.6094 65.4375
Q61.2812 60.6406 64.0781 53.1875
Q66.8906 45.75 66.8906 36.1875
Q66.8906 28.0312 64.9844 21.7344
Q63.0938 15.4375 60.1094 11.2969
Q57.125 7.17188 53.5781 4.79688
Q50.0469 2.4375 45.0469 1.21875
Q40.0469 0 33.5469 0
z

M17.1875 8.45312
L32.4688 8.45312
Q39.5469 8.45312 43.5781 9.76562
Q47.6094 11.0781 50 13.4844
Q53.375 16.8438 55.25 22.5312
Q57.125 28.2188 57.125 36.3281
Q57.125 47.5625 53.4375 53.5938
Q49.75 59.625 44.4844 61.6719
Q40.6719 63.1406 32.2344 63.1406
L17.1875 63.1406
z
" id="ArialMT-44"/>
      <path d="
M6.5 0
L6.5 51.8594
L14.4062 51.8594
L14.4062 44
Q17.4375 49.5156 20 51.2656
Q22.5625 53.0312 25.6406 53.0312
Q30.0781 53.0312 34.6719 50.2031
L31.6406 42.0469
Q28.4219 43.9531 25.2031 43.9531
Q22.3125 43.9531 20.0156 42.2188
Q17.7188 40.4844 16.75 37.4062
Q15.2812 32.7188 15.2812 27.1562
L15.2812 0
z
" id="ArialMT-72"/>
      <path d="
M3.07812 15.4844
L11.7656 16.8438
Q12.5 11.625 15.8438 8.84375
Q19.1875 6.0625 25.2031 6.0625
Q31.25 6.0625 34.1719 8.51562
Q37.1094 10.9844 37.1094 14.3125
Q37.1094 17.2812 34.5156 19
Q32.7188 20.1719 25.5312 21.9688
Q15.875 24.4219 12.1406 26.2031
Q8.40625 27.9844 6.46875 31.125
Q4.54688 34.2812 4.54688 38.0938
Q4.54688 41.5469 6.125 44.5
Q7.71875 47.4688 10.4531 49.4219
Q12.5 50.9219 16.0312 51.9688
Q19.5781 53.0312 23.6406 53.0312
Q29.7344 53.0312 34.3438 51.2656
Q38.9688 49.5156 41.1562 46.5
Q43.3594 43.5 44.1875 38.4844
L35.5938 37.3125
Q35.0156 41.3125 32.2031 43.5469
Q29.3906 45.7969 24.2656 45.7969
Q18.2188 45.7969 15.625 43.7969
Q13.0312 41.7969 13.0312 39.1094
Q13.0312 37.4062 14.1094 36.0312
Q15.1875 34.625 17.4844 33.6875
Q18.7969 33.2031 25.25 31.4531
Q34.5781 28.9531 38.25 27.3594
Q41.9375 25.7812 44.0312 22.75
Q46.1406 19.7344 46.1406 15.2344
Q46.1406 10.8438 43.5781 6.95312
Q41.0156 3.07812 36.1719 0.953125
Q31.3438 -1.17188 25.25 -1.17188
Q15.1406 -1.17188 9.84375 3.03125
Q4.54688 7.23438 3.07812 15.4844" id="ArialMT-73"/>
      <path d="
M6.39062 0
L6.39062 71.5781
L15.1875 71.5781
L15.1875 0
z
" id="ArialMT-6c"/>
      <path d="
M3.32812 25.9219
Q3.32812 40.3281 11.3281 47.2656
Q18.0156 53.0312 27.6406 53.0312
Q38.3281 53.0312 45.1094 46.0156
Q51.9062 39.0156 51.9062 26.6562
Q51.9062 16.6562 48.9062 10.9062
Q45.9062 5.17188 40.1562 2
Q34.4219 -1.17188 27.6406 -1.17188
Q16.75 -1.17188 10.0312 5.8125
Q3.32812 12.7969 3.32812 25.9219
M12.3594 25.9219
Q12.3594 15.9688 16.7031 11.0156
Q21.0469 6.0625 27.6406 6.0625
Q34.1875 6.0625 38.5312 11.0312
Q42.875 16.0156 42.875 26.2188
Q42.875 35.8438 38.5 40.7969
Q34.125 45.75 27.6406 45.75
Q21.0469 45.75 16.7031 40.8125
Q12.3594 35.8906 12.3594 25.9219" id="ArialMT-6f"/>
      <path d="
M6.59375 0
L6.59375 51.8594
L14.4531 51.8594
L14.4531 44.5781
Q16.8906 48.3906 20.9375 50.7031
Q25 53.0312 30.1719 53.0312
Q35.9375 53.0312 39.625 50.6406
Q43.3125 48.25 44.8281 43.9531
Q50.9844 53.0312 60.8438 53.0312
Q68.5625 53.0312 72.7031 48.75
Q76.8594 44.4844 76.8594 35.5938
L76.8594 0
L68.1094 0
L68.1094 32.6719
Q68.1094 37.9375 67.25 40.25
Q66.4062 42.5781 64.1562 43.9844
Q61.9219 45.4062 58.8906 45.4062
Q53.4219 45.4062 49.7969 41.7656
Q46.1875 38.1406 46.1875 30.125
L46.1875 0
L37.4062 0
L37.4062 33.6875
Q37.4062 39.5469 35.25 42.4688
Q33.1094 45.4062 28.2188 45.4062
Q24.5156 45.4062 21.3594 43.4531
Q18.2188 41.5 16.7969 37.7344
Q15.375 33.9844 15.375 26.9062
L15.375 0
z
" id="ArialMT-6d"/>
      <path id="ArialMT-20"/>
     </defs>
     <g transform="translate(230.559375 277.734375)scale(0.12 -0.12)">
      <use transform="translate(0.0 0.421875)" xlink:href="#ArialMT-44"/>
      <use transform="translate(72.216796875 0.421875)" xlink:href="#ArialMT-69"/>
      <use transform="translate(94.43359375 0.421875)" xlink:href="#ArialMT-72"/>
      <use transform="translate(127.734375 0.421875)" xlink:href="#ArialMT-69"/>
      <use transform="translate(149.951171875 0.421875)" xlink:href="#ArialMT-63"/>
      <use transform="translate(199.951171875 0.421875)" xlink:href="#ArialMT-68"/>
      <use transform="translate(255.56640625 0.421875)" xlink:href="#ArialMT-6c"/>
      <use transform="translate(277.783203125 0.421875)" xlink:href="#ArialMT-65"/>
      <use transform="translate(333.3984375 0.421875)" xlink:href="#ArialMT-74"/>
      <use transform="translate(361.181640625 0.421875)" xlink:href="#ArialMT-20"/>
      <use transform="translate(388.96484375 0.421875)" xlink:href="#ArialMT-73"/>
      <use transform="translate(438.96484375 0.421875)" xlink:href="#ArialMT-79"/>
      <use transform="translate(488.96484375 0.421875)" xlink:href="#ArialMT-6d"/>
      <use transform="translate(572.265625 0.421875)" xlink:href="#ArialMT-6d"/>
      <use transform="translate(655.56640625 0.421875)" xlink:href="#ArialMT-65"/>
      <use transform="translate(711.181640625 0.421875)" xlink:href="#ArialMT-74"/>
      <use transform="translate(738.96484375 0.421875)" xlink:href="#ArialMT-72"/>
      <use transform="translate(772.265625 0.421875)" xlink:href="#ArialMT-69"/>
      <use transform="translate(794.482421875 0.421875)" xlink:href="#ArialMT-63"/>
      <use transform="translate(844.482421875 0.421875)" xlink:href="#ArialMT-20"/>
      <use transform="translate(872.265625 0.421875)" xlink:href="#ArialMT-70"/>
      <use transform="translate(927.880859375 0.421875)" xlink:href="#ArialMT-72"/>
      <use transform="translate(961.181640625 0.421875)" xlink:href="#ArialMT-69"/>
      <use transform="translate(983.3984375 0.421875)" xlink:href="#ArialMT-6f"/>
      <use transform="translate(1039.01367188 0.421875)" xlink:href="#ArialMT-72"/>
      <use transform="translate(1072.31445312 0.421875)" xlink:href="#ArialMT-20"/>
      <use transform="translate(1100.09765625 0.421875)" xlink:href="#Cmmi10-ae"/>
     </g>
    </g>
   </g>
   <g id="matplotlib.axis_2">
    <g id="ytick_1">
     <g id="line2d_26">
      <path clip-path="url(#p376806e7c1)" d="
M55.1053 249.12
L545.813 249.12" style="fill:none;stroke:#000000;stroke-dasharray:1.000000,3.000000;stroke-dashoffset:0.0;stroke-width:0.5;"/>
     </g>
     <g id="line2d_27">
      <defs>
       <path d="
M0 0
L4 0" id="m728421d6d4" style="stroke:#000000;stroke-width:0.5;"/>
      </defs>
      <g>
       <use style="stroke:#000000;stroke-width:0.5;" x="55.1053125" xlink:href="#m728421d6d4" y="249.12"/>
      </g>
     </g>
     <g id="line2d_28">
      <defs>
       <path d="
M0 0
L-4 0" id="mcb0005524f" style="stroke:#000000;stroke-width:0.5;"/>
      </defs>
      <g>
       <use style="stroke:#000000;stroke-width:0.5;" x="545.8134375" xlink:href="#mcb0005524f" y="249.12"/>
      </g>
     </g>
     <g id="text_8">
      <!-- 0.0 -->
      <defs>
       <path d="
M9.07812 0
L9.07812 10.0156
L19.0938 10.0156
L19.0938 0
z
" id="ArialMT-2e"/>
      </defs>
      <g transform="translate(35.4978125 252.2221875)scale(0.12 -0.12)">
       <use xlink:href="#ArialMT-30"/>
       <use x="55.615234375" xlink:href="#ArialMT-2e"/>
       <use x="83.3984375" xlink:href="#ArialMT-30"/>
      </g>
     </g>
    </g>
    <g id="ytick_2">
     <g id="line2d_29">
      <path clip-path="url(#p376806e7c1)" d="
M55.1053 202.968
L545.813 202.968" style="fill:none;stroke:#000000;stroke-dasharray:1.000000,3.000000;stroke-dashoffset:0.0;stroke-width:0.5;"/>
     </g>
     <g id="line2d_30">
      <g>
       <use style="stroke:#000000;stroke-width:0.5;" x="55.1053125" xlink:href="#m728421d6d4" y="202.968"/>
      </g>
     </g>
     <g id="line2d_31">
      <g>
       <use style="stroke:#000000;stroke-width:0.5;" x="545.8134375" xlink:href="#mcb0005524f" y="202.968"/>
      </g>
     </g>
     <g id="text_9">
      <!-- 0.1 -->
      <g transform="translate(37.1271875 206.0701875)scale(0.12 -0.12)">
       <use xlink:href="#ArialMT-30"/>
       <use x="55.615234375" xlink:href="#ArialMT-2e"/>
       <use x="83.3984375" xlink:href="#ArialMT-31"/>
      </g>
     </g>
    </g>
    <g id="ytick_3">
     <g id="line2d_32">
      <path clip-path="url(#p376806e7c1)" d="
M55.1053 156.816
L545.813 156.816" style="fill:none;stroke:#000000;stroke-dasharray:1.000000,3.000000;stroke-dashoffset:0.0;stroke-width:0.5;"/>
     </g>
     <g id="line2d_33">
      <g>
       <use style="stroke:#000000;stroke-width:0.5;" x="55.1053125" xlink:href="#m728421d6d4" y="156.816"/>
      </g>
     </g>
     <g id="line2d_34">
      <g>
       <use style="stroke:#000000;stroke-width:0.5;" x="545.8134375" xlink:href="#mcb0005524f" y="156.816"/>
      </g>
     </g>
     <g id="text_10">
      <!-- 0.2 -->
      <g transform="translate(35.5559375 159.9181875)scale(0.12 -0.12)">
       <use xlink:href="#ArialMT-30"/>
       <use x="55.615234375" xlink:href="#ArialMT-2e"/>
       <use x="83.3984375" xlink:href="#ArialMT-32"/>
      </g>
     </g>
    </g>
    <g id="ytick_4">
     <g id="line2d_35">
      <path clip-path="url(#p376806e7c1)" d="
M55.1053 110.664
L545.813 110.664" style="fill:none;stroke:#000000;stroke-dasharray:1.000000,3.000000;stroke-dashoffset:0.0;stroke-width:0.5;"/>
     </g>
     <g id="line2d_36">
      <g>
       <use style="stroke:#000000;stroke-width:0.5;" x="55.1053125" xlink:href="#m728421d6d4" y="110.664"/>
      </g>
     </g>
     <g id="line2d_37">
      <g>
       <use style="stroke:#000000;stroke-width:0.5;" x="545.8134375" xlink:href="#mcb0005524f" y="110.664"/>
      </g>
     </g>
     <g id="text_11">
      <!-- 0.3 -->
      <g transform="translate(35.4678125 113.7661875)scale(0.12 -0.12)">
       <use xlink:href="#ArialMT-30"/>
       <use x="55.615234375" xlink:href="#ArialMT-2e"/>
       <use x="83.3984375" xlink:href="#ArialMT-33"/>
      </g>
     </g>
    </g>
    <g id="ytick_5">
     <g id="line2d_38">
      <path clip-path="url(#p376806e7c1)" d="
M55.1053 64.512
L545.813 64.512" style="fill:none;stroke:#000000;stroke-dasharray:1.000000,3.000000;stroke-dashoffset:0.0;stroke-width:0.5;"/>
     </g>
     <g id="line2d_39">
      <g>
       <use style="stroke:#000000;stroke-width:0.5;" x="55.1053125" xlink:href="#m728421d6d4" y="64.512"/>
      </g>
     </g>
     <g id="line2d_40">
      <g>
       <use style="stroke:#000000;stroke-width:0.5;" x="545.8134375" xlink:href="#mcb0005524f" y="64.512"/>
      </g>
     </g>
     <g id="text_12">
      <!-- 0.4 -->
      <g transform="translate(35.5034375 67.6141875)scale(0.12 -0.12)">
       <use xlink:href="#ArialMT-30"/>
       <use x="55.615234375" xlink:href="#ArialMT-2e"/>
       <use x="83.3984375" xlink:href="#ArialMT-34"/>
      </g>
     </g>
    </g>
    <g id="ytick_6">
     <g id="line2d_41">
      <path clip-path="url(#p376806e7c1)" d="
M55.1053 18.36
L545.813 18.36" style="fill:none;stroke:#000000;stroke-dasharray:1.000000,3.000000;stroke-dashoffset:0.0;stroke-width:0.5;"/>
     </g>
     <g id="line2d_42">
      <g>
       <use style="stroke:#000000;stroke-width:0.5;" x="55.1053125" xlink:href="#m728421d6d4" y="18.36"/>
      </g>
     </g>
     <g id="line2d_43">
      <g>
       <use style="stroke:#000000;stroke-width:0.5;" x="545.8134375" xlink:href="#mcb0005524f" y="18.36"/>
      </g>
     </g>
     <g id="text_13">
      <!-- 0.5 -->
      <g transform="translate(35.4040625 21.4621875)scale(0.12 -0.12)">
       <use xlink:href="#ArialMT-30"/>
       <use x="55.615234375" xlink:href="#ArialMT-2e"/>
       <use x="83.3984375" xlink:href="#ArialMT-35"/>
      </g>
     </g>
    </g>
    <g id="text_14">
     <!-- RMSE -->
     <defs>
      <path d="
M7.85938 0
L7.85938 71.5781
L39.5938 71.5781
Q49.1719 71.5781 54.1406 69.6406
Q59.125 67.7188 62.1094 62.8281
Q65.0938 57.9531 65.0938 52.0469
Q65.0938 44.4375 60.1562 39.2031
Q55.2188 33.9844 44.9219 32.5625
Q48.6875 30.7656 50.6406 29
Q54.7812 25.2031 58.5 19.4844
L70.9531 0
L59.0312 0
L49.5625 14.8906
Q45.4062 21.3438 42.7188 24.75
Q40.0469 28.1719 37.9219 29.5312
Q35.7969 30.9062 33.5938 31.4531
Q31.9844 31.7812 28.3281 31.7812
L17.3281 31.7812
L17.3281 0
z

M17.3281 39.9844
L37.7031 39.9844
Q44.1875 39.9844 47.8438 41.3281
Q51.5156 42.6719 53.4219 45.625
Q55.3281 48.5781 55.3281 52.0469
Q55.3281 57.125 51.6406 60.3906
Q47.9531 63.6719 39.9844 63.6719
L17.3281 63.6719
z
" id="ArialMT-52"/>
      <path d="
M4.5 23
L13.4219 23.7812
Q14.0625 18.4062 16.375 14.9688
Q18.7031 11.5312 23.5781 9.40625
Q28.4688 7.28125 34.5781 7.28125
Q39.9844 7.28125 44.1406 8.89062
Q48.2969 10.5 50.3125 13.2969
Q52.3438 16.1094 52.3438 19.4375
Q52.3438 22.7969 50.3906 25.3125
Q48.4375 27.8281 43.9531 29.5469
Q41.0625 30.6719 31.2031 33.0312
Q21.3438 35.4062 17.3906 37.5
Q12.25 40.1875 9.73438 44.1562
Q7.23438 48.1406 7.23438 53.0781
Q7.23438 58.5 10.2969 63.2031
Q13.375 67.9219 19.2812 70.3594
Q25.2031 72.7969 32.4219 72.7969
Q40.375 72.7969 46.4531 70.2344
Q52.5469 67.6719 55.8125 62.6875
Q59.0781 57.7188 59.3281 51.4219
L50.25 50.7344
Q49.5156 57.5156 45.2812 60.9844
Q41.0625 64.4531 32.8125 64.4531
Q24.2188 64.4531 20.2812 61.2969
Q16.3594 58.1562 16.3594 53.7188
Q16.3594 49.8594 19.1406 47.3594
Q21.875 44.875 33.4219 42.2656
Q44.9688 39.6562 49.2656 37.7031
Q55.5156 34.8125 58.4844 30.3906
Q61.4688 25.9844 61.4688 20.2188
Q61.4688 14.5 58.2031 9.4375
Q54.9375 4.39062 48.7969 1.57812
Q42.6719 -1.21875 35.0156 -1.21875
Q25.2969 -1.21875 18.7188 1.60938
Q12.1562 4.4375 8.42188 10.125
Q4.6875 15.8281 4.5 23" id="ArialMT-53"/>
      <path d="
M7.90625 0
L7.90625 71.5781
L59.6719 71.5781
L59.6719 63.1406
L17.3906 63.1406
L17.3906 41.2188
L56.9844 41.2188
L56.9844 32.8125
L17.3906 32.8125
L17.3906 8.45312
L61.3281 8.45312
L61.3281 0
z
" id="ArialMT-45"/>
      <path d="
M7.42188 0
L7.42188 71.5781
L21.6875 71.5781
L38.625 20.9062
Q40.9688 13.8125 42.0469 10.2969
Q43.2656 14.2031 45.8438 21.7812
L62.9844 71.5781
L75.7344 71.5781
L75.7344 0
L66.6094 0
L66.6094 59.9062
L45.7969 0
L37.25 0
L16.5469 60.9375
L16.5469 0
z
" id="ArialMT-4d"/>
     </defs>
     <g transform="translate(28.0190625 150.28125)rotate(-90.0)scale(0.12 -0.12)">
      <use xlink:href="#ArialMT-52"/>
      <use x="72.216796875" xlink:href="#ArialMT-4d"/>
      <use x="155.517578125" xlink:href="#ArialMT-53"/>
      <use x="222.216796875" xlink:href="#ArialMT-45"/>
     </g>
    </g>
   </g>
   <g id="patch_3">
    <path d="
M55.1053 18.36
L545.813 18.36" style="fill:none;stroke:#000000;"/>
   </g>
   <g id="patch_4">
    <path d="
M545.813 249.12
L545.813 18.36" style="fill:none;stroke:#000000;"/>
   </g>
   <g id="patch_5">
    <path d="
M55.1053 249.12
L545.813 249.12" style="fill:none;stroke:#000000;"/>
   </g>
   <g id="patch_6">
    <path d="
M55.1053 249.12
L55.1053 18.36" style="fill:none;stroke:#000000;"/>
   </g>
   <g id="legend_1">
    <g id="patch_7">
     <path d="
M61.2849 71.0415
L538.613 71.0415
L538.613 25.56
L61.2849 25.56
L61.2849 71.0415
z
" style="fill:#ffffff;stroke:#000000;"/>
    </g>
    <g id="line2d_44">
     <path d="
M71.3649 36.63
L91.5249 36.63" style="fill:none;stroke:#000000;stroke-linecap:square;stroke-width:1.5;"/>
    </g>
    <g id="line2d_45"/>
    <g id="text_15">
     <!-- Plugin -->
     <defs>
      <path d="
M40.5781 0
L40.5781 7.625
Q34.5156 -1.17188 24.125 -1.17188
Q19.5312 -1.17188 15.5469 0.578125
Q11.5781 2.34375 9.64062 5
Q7.71875 7.67188 6.9375 11.5312
Q6.39062 14.1094 6.39062 19.7344
L6.39062 51.8594
L15.1875 51.8594
L15.1875 23.0938
Q15.1875 16.2188 15.7188 13.8125
Q16.5469 10.3594 19.2344 8.375
Q21.9219 6.39062 25.875 6.39062
Q29.8281 6.39062 33.2969 8.42188
Q36.7656 10.4531 38.2031 13.9375
Q39.6562 17.4375 39.6562 24.0781
L39.6562 51.8594
L48.4375 51.8594
L48.4375 0
z
" id="ArialMT-75"/>
      <path d="
M7.71875 0
L7.71875 71.5781
L34.7188 71.5781
Q41.8438 71.5781 45.6094 70.9062
Q50.875 70.0156 54.4375 67.5469
Q58.0156 65.0938 60.1875 60.6406
Q62.3594 56.2031 62.3594 50.875
Q62.3594 41.75 56.5469 35.4219
Q50.7344 29.1094 35.5469 29.1094
L17.1875 29.1094
L17.1875 0
z

M17.1875 37.5469
L35.6875 37.5469
Q44.875 37.5469 48.7344 40.9688
Q52.5938 44.3906 52.5938 50.5938
Q52.5938 55.0781 50.3125 58.2656
Q48.0469 61.4688 44.3438 62.5
Q41.9375 63.1406 35.5 63.1406
L17.1875 63.1406
z
" id="ArialMT-50"/>
      <path d="
M4.98438 -4.29688
L13.5312 -5.5625
Q14.0625 -9.51562 16.5 -11.3281
Q19.7812 -13.7656 25.4375 -13.7656
Q31.5469 -13.7656 34.8594 -11.3281
Q38.1875 -8.89062 39.3594 -4.5
Q40.0469 -1.8125 39.9844 6.78125
Q34.2344 0 25.6406 0
Q14.9375 0 9.07812 7.71875
Q3.21875 15.4375 3.21875 26.2188
Q3.21875 33.6406 5.90625 39.9062
Q8.59375 46.1875 13.6875 49.6094
Q18.7969 53.0312 25.6875 53.0312
Q34.8594 53.0312 40.8281 45.6094
L40.8281 51.8594
L48.9219 51.8594
L48.9219 7.03125
Q48.9219 -5.07812 46.4531 -10.125
Q44 -15.1875 38.6406 -18.1094
Q33.2969 -21.0469 25.4844 -21.0469
Q16.2188 -21.0469 10.5 -16.875
Q4.78125 -12.7031 4.98438 -4.29688
M12.25 26.8594
Q12.25 16.6562 16.2969 11.9688
Q20.3594 7.28125 26.4688 7.28125
Q32.5156 7.28125 36.6094 11.9375
Q40.7188 16.6094 40.7188 26.5625
Q40.7188 36.0781 36.5 40.9062
Q32.2812 45.75 26.3125 45.75
Q20.4531 45.75 16.3438 40.9844
Q12.25 36.2344 12.25 26.8594" id="ArialMT-67"/>
      <path d="
M6.59375 0
L6.59375 51.8594
L14.5 51.8594
L14.5 44.4844
Q20.2188 53.0312 31 53.0312
Q35.6875 53.0312 39.625 51.3438
Q43.5625 49.6562 45.5156 46.9219
Q47.4688 44.1875 48.25 40.4375
Q48.7344 37.9844 48.7344 31.8906
L48.7344 0
L39.9375 0
L39.9375 31.5469
Q39.9375 36.9219 38.9062 39.5781
Q37.8906 42.2344 35.2812 43.8125
Q32.6719 45.4062 29.1562 45.4062
Q23.5312 45.4062 19.4531 41.8438
Q15.375 38.2812 15.375 28.3281
L15.375 0
z
" id="ArialMT-6e"/>
     </defs>
     <g transform="translate(107.3649375 41.67)scale(0.144 -0.144)">
      <use xlink:href="#ArialMT-50"/>
      <use x="66.69921875" xlink:href="#ArialMT-6c"/>
      <use x="88.916015625" xlink:href="#ArialMT-75"/>
      <use x="144.53125" xlink:href="#ArialMT-67"/>
      <use x="200.146484375" xlink:href="#ArialMT-69"/>
      <use x="222.36328125" xlink:href="#ArialMT-6e"/>
     </g>
    </g>
    <g id="line2d_46">
     <path d="
M71.3649 57.2108
L91.5249 57.2108" style="fill:none;stroke:#0000ff;stroke-linecap:square;stroke-width:1.5;"/>
    </g>
    <g id="line2d_47"/>
    <g id="text_16">
     <!-- Bayes 0.5 -->
     <defs>
      <path d="
M40.4375 6.39062
Q35.5469 2.25 31.0312 0.53125
Q26.5156 -1.17188 21.3438 -1.17188
Q12.7969 -1.17188 8.20312 3
Q3.60938 7.17188 3.60938 13.6719
Q3.60938 17.4844 5.34375 20.625
Q7.07812 23.7812 9.89062 25.6875
Q12.7031 27.5938 16.2188 28.5625
Q18.7969 29.25 24.0312 29.8906
Q34.6719 31.1562 39.7031 32.9062
Q39.75 34.7188 39.75 35.2031
Q39.75 40.5781 37.25 42.7812
Q33.8906 45.75 27.25 45.75
Q21.0469 45.75 18.0938 43.5781
Q15.1406 41.4062 13.7188 35.8906
L5.125 37.0625
Q6.29688 42.5781 8.98438 45.9688
Q11.6719 49.3594 16.75 51.1875
Q21.8281 53.0312 28.5156 53.0312
Q35.1562 53.0312 39.2969 51.4688
Q43.4531 49.9062 45.4062 47.5312
Q47.3594 45.1719 48.1406 41.5469
Q48.5781 39.3125 48.5781 33.4531
L48.5781 21.7344
Q48.5781 9.46875 49.1406 6.21875
Q49.7031 2.98438 51.375 0
L42.1875 0
Q40.8281 2.73438 40.4375 6.39062
M39.7031 26.0312
Q34.9062 24.0781 25.3438 22.7031
Q19.9219 21.9219 17.6719 20.9375
Q15.4375 19.9688 14.2031 18.0938
Q12.9844 16.2188 12.9844 13.9219
Q12.9844 10.4062 15.6406 8.0625
Q18.3125 5.71875 23.4375 5.71875
Q28.5156 5.71875 32.4688 7.9375
Q36.4219 10.1562 38.2812 14.0156
Q39.7031 17 39.7031 22.7969
z
" id="ArialMT-61"/>
      <path d="
M7.32812 0
L7.32812 71.5781
L34.1875 71.5781
Q42.3906 71.5781 47.3438 69.4062
Q52.2969 67.2344 55.0938 62.7188
Q57.9062 58.2031 57.9062 53.2656
Q57.9062 48.6875 55.4219 44.625
Q52.9375 40.5781 47.9062 38.0938
Q54.3906 36.1875 57.875 31.5938
Q61.375 27 61.375 20.75
Q61.375 15.7188 59.25 11.3906
Q57.125 7.07812 54 4.73438
Q50.875 2.39062 46.1562 1.1875
Q41.4531 0 34.625 0
z

M16.7969 41.5
L32.2812 41.5
Q38.5781 41.5 41.3125 42.3281
Q44.9219 43.4062 46.75 45.8906
Q48.5781 48.3906 48.5781 52.1562
Q48.5781 55.7188 46.875 58.4219
Q45.1719 61.1406 41.9844 62.1406
Q38.8125 63.1406 31.1094 63.1406
L16.7969 63.1406
z

M16.7969 8.45312
L34.625 8.45312
Q39.2031 8.45312 41.0625 8.79688
Q44.3438 9.375 46.5312 10.7344
Q48.7344 12.1094 50.1406 14.7188
Q51.5625 17.3281 51.5625 20.75
Q51.5625 24.75 49.5156 27.7031
Q47.4688 30.6719 43.8281 31.8594
Q40.1875 33.0625 33.3438 33.0625
L16.7969 33.0625
z
" id="ArialMT-42"/>
     </defs>
     <g transform="translate(107.3649375 62.25075)scale(0.144 -0.144)">
      <use xlink:href="#ArialMT-42"/>
      <use x="66.69921875" xlink:href="#ArialMT-61"/>
      <use x="122.314453125" xlink:href="#ArialMT-79"/>
      <use x="172.314453125" xlink:href="#ArialMT-65"/>
      <use x="227.9296875" xlink:href="#ArialMT-73"/>
      <use x="277.9296875" xlink:href="#ArialMT-20"/>
      <use x="305.712890625" xlink:href="#ArialMT-30"/>
      <use x="361.328125" xlink:href="#ArialMT-2e"/>
      <use x="389.111328125" xlink:href="#ArialMT-35"/>
     </g>
    </g>
    <g id="line2d_48">
     <path d="
M203.946 36.63
L224.106 36.63" style="fill:none;stroke:#ff0000;stroke-linecap:square;stroke-width:1.5;"/>
    </g>
    <g id="line2d_49"/>
    <g id="text_17">
     <!-- Bayes 1.5 -->
     <g transform="translate(239.9461875 41.67)scale(0.144 -0.144)">
      <use xlink:href="#ArialMT-42"/>
      <use x="66.69921875" xlink:href="#ArialMT-61"/>
      <use x="122.314453125" xlink:href="#ArialMT-79"/>
      <use x="172.314453125" xlink:href="#ArialMT-65"/>
      <use x="227.9296875" xlink:href="#ArialMT-73"/>
      <use x="277.9296875" xlink:href="#ArialMT-20"/>
      <use x="305.712890625" xlink:href="#ArialMT-31"/>
      <use x="361.328125" xlink:href="#ArialMT-2e"/>
      <use x="389.111328125" xlink:href="#ArialMT-35"/>
     </g>
    </g>
    <g id="line2d_50">
     <path d="
M203.946 57.2108
L224.106 57.2108" style="fill:none;stroke:#bf00bf;stroke-linecap:square;stroke-width:1.5;"/>
    </g>
    <g id="line2d_51"/>
    <g id="text_18">
     <!-- Bayes 2.5 -->
     <g transform="translate(239.9461875 62.25075)scale(0.144 -0.144)">
      <use xlink:href="#ArialMT-42"/>
      <use x="66.69921875" xlink:href="#ArialMT-61"/>
      <use x="122.314453125" xlink:href="#ArialMT-79"/>
      <use x="172.314453125" xlink:href="#ArialMT-65"/>
      <use x="227.9296875" xlink:href="#ArialMT-73"/>
      <use x="277.9296875" xlink:href="#ArialMT-20"/>
      <use x="305.712890625" xlink:href="#ArialMT-32"/>
      <use x="361.328125" xlink:href="#ArialMT-2e"/>
      <use x="389.111328125" xlink:href="#ArialMT-35"/>
     </g>
    </g>
    <g id="line2d_52">
     <path d="
M336.527 36.63
L356.687 36.63" style="fill:none;stroke:#008000;stroke-linecap:square;stroke-width:1.5;"/>
    </g>
    <g id="line2d_53"/>
    <g id="text_19">
     <!-- Bayes 3.5 -->
     <g transform="translate(372.5274375 41.67)scale(0.144 -0.144)">
      <use xlink:href="#ArialMT-42"/>
      <use x="66.69921875" xlink:href="#ArialMT-61"/>
      <use x="122.314453125" xlink:href="#ArialMT-79"/>
      <use x="172.314453125" xlink:href="#ArialMT-65"/>
      <use x="227.9296875" xlink:href="#ArialMT-73"/>
      <use x="277.9296875" xlink:href="#ArialMT-20"/>
      <use x="305.712890625" xlink:href="#ArialMT-33"/>
      <use x="361.328125" xlink:href="#ArialMT-2e"/>
      <use x="389.111328125" xlink:href="#ArialMT-35"/>
     </g>
    </g>
    <g id="line2d_54">
     <path d="
M336.527 57.168
L356.687 57.168" style="fill:none;stroke:#000000;stroke-dasharray:6.000000,6.000000;stroke-dashoffset:0.0;stroke-width:1.5;"/>
    </g>
    <g id="line2d_55"/>
    <g id="text_20">
     <!-- Bayes 4.5 -->
     <g transform="translate(372.5274375 62.208)scale(0.144 -0.144)">
      <use xlink:href="#ArialMT-42"/>
      <use x="66.69921875" xlink:href="#ArialMT-61"/>
      <use x="122.314453125" xlink:href="#ArialMT-79"/>
      <use x="172.314453125" xlink:href="#ArialMT-65"/>
      <use x="227.9296875" xlink:href="#ArialMT-73"/>
      <use x="277.9296875" xlink:href="#ArialMT-20"/>
      <use x="305.712890625" xlink:href="#ArialMT-34"/>
      <use x="361.328125" xlink:href="#ArialMT-2e"/>
      <use x="389.111328125" xlink:href="#ArialMT-35"/>
     </g>
    </g>
    <g id="line2d_56">
     <path d="
M469.109 36.63
L489.269 36.63" style="fill:none;stroke:#0000ff;stroke-dasharray:6.000000,6.000000;stroke-dashoffset:0.0;stroke-width:1.5;"/>
    </g>
    <g id="line2d_57"/>
    <g id="text_21">
     <!-- NSB -->
     <defs>
      <path d="
M7.625 0
L7.625 71.5781
L17.3281 71.5781
L54.9375 15.375
L54.9375 71.5781
L64.0156 71.5781
L64.0156 0
L54.2969 0
L16.7031 56.25
L16.7031 0
z
" id="ArialMT-4e"/>
     </defs>
     <g transform="translate(505.1086875 41.67)scale(0.144 -0.144)">
      <use xlink:href="#ArialMT-4e"/>
      <use x="72.216796875" xlink:href="#ArialMT-53"/>
      <use x="138.916015625" xlink:href="#ArialMT-42"/>
     </g>
    </g>
   </g>
  </g>
  <g id="axes_2">
   <g id="patch_8">
    <path d="
M55.1053 527.94
L545.813 527.94
L545.813 297.18
L55.1053 297.18
z
" style="fill:#ffffff;"/>
   </g>
   <g id="line2d_58">
    <path clip-path="url(#p354f975b17)" d="
M67.373 426.59
L79.6407 411.765
L91.9084 402.47
L104.176 397.431
L116.444 393.246
L128.712 390.384
L140.979 388.323
L153.247 386.396
L165.515 384.968
L177.782 383.823
L190.05 382.869
L202.318 381.966
L214.585 381.228
L226.853 380.883
L239.121 380.514
L251.389 379.81
L263.656 379.979
L275.924 379.317
L288.192 379.053
L300.459 379.007
L312.727 378.234
L324.995 378.509
L337.262 378.065
L349.53 377.716
L361.798 377.935
L374.066 376.847
L386.333 377.218
L398.601 377.168
L410.869 376.924
L423.136 377.086
L435.404 377.036
L447.672 376.587
L459.94 376.979
L472.207 376.654
L484.475 376.492
L496.743 376.567
L509.01 376.683
L521.278 376.191
L533.546 376.389
L545.813 376.431" style="fill:none;stroke:#000000;stroke-linecap:square;stroke-width:1.5;"/>
   </g>
   <g id="line2d_59">
    <path clip-path="url(#p354f975b17)" d="
M67.373 562.52
L79.6407 508.067
L91.9084 477.71
L104.176 459.023
L116.444 445.427
L128.712 435.437
L140.979 427.651
L153.247 421.199
L165.515 416.439
L177.782 412.192
L190.05 408.784
L202.318 405.579
L214.585 402.878
L226.853 400.895
L239.121 398.884
L251.389 397.135
L263.656 395.806
L275.924 394.309
L288.192 392.984
L300.459 391.821
L312.727 390.647
L324.995 389.948
L337.262 388.842
L349.53 387.937
L361.798 387.493
L374.066 386.235
L386.333 385.873
L398.601 385.351
L410.869 384.668
L423.136 384.319
L435.404 383.822
L447.672 383.247
L459.94 382.968
L472.207 382.417
L484.475 382.026
L496.743 381.727
L509.01 381.508
L521.278 380.912
L533.546 380.699
L545.813 380.455" style="fill:none;stroke:#0000ff;stroke-linecap:square;stroke-width:1.5;"/>
   </g>
   <g id="line2d_60">
    <path clip-path="url(#p354f975b17)" d="
M67.373 686.85
M87.4945 577
L91.9084 561.195
L104.176 534.06
L116.444 514.805
L128.712 500.618
L140.979 489.532
L153.247 480.484
L165.515 473.833
L177.782 467.871
L190.05 463.1
L202.318 458.619
L214.585 454.834
L226.853 451.974
L239.121 449.055
L251.389 446.724
L263.656 444.623
L275.924 442.665
L288.192 440.757
L300.459 438.99
L312.727 437.597
L324.995 436.389
L337.262 434.918
L349.53 433.736
L361.798 432.928
L374.066 431.567
L386.333 430.822
L398.601 430.046
L410.869 429.156
L423.136 428.516
L435.404 427.801
L447.672 427.137
L459.94 426.521
L472.207 425.856
L484.475 425.34
L496.743 424.835
L509.01 424.425
L521.278 423.804
L533.546 423.357
L545.813 422.988" style="fill:none;stroke:#ff0000;stroke-linecap:square;stroke-width:1.5;"/>
   </g>
   <g id="line2d_61">
    <path clip-path="url(#p354f975b17)" d="
M67.373 737.986
M99.1721 577
L104.176 564.535
L116.444 543.019
L128.712 527.172
L140.979 514.794
L153.247 504.732
L165.515 497.347
L177.782 490.728
L190.05 485.432
L202.318 480.461
L214.585 476.262
L226.853 473.071
L239.121 469.803
L251.389 467.25
L263.656 464.862
L275.924 462.726
L288.192 460.597
L300.459 458.603
L312.727 457.126
L324.995 455.727
L337.262 454.117
L349.53 452.834
L361.798 451.888
L374.066 450.487
L386.333 449.599
L398.601 448.728
L410.869 447.764
L423.136 447.011
L435.404 446.217
L447.672 445.517
L459.94 444.776
L472.207 444.07
L484.475 443.507
L496.743 442.924
L509.01 442.44
L521.278 441.814
L533.546 441.277
L545.813 440.865" style="fill:none;stroke:#bf00bf;stroke-linecap:square;stroke-width:1.5;"/>
   </g>
   <g id="line2d_62">
    <path clip-path="url(#p354f975b17)" d="
M67.373 764.863
M106.068 577
L116.444 557.824
L128.712 541.136
L140.979 528.106
L153.247 517.534
L165.515 509.782
L177.782 502.836
L190.05 497.28
L202.318 492.066
L214.585 487.661
L226.853 484.307
L239.121 480.865
L251.389 478.204
L263.656 475.675
L275.924 473.452
L288.192 471.212
L300.459 469.107
L312.727 467.589
L324.995 466.097
L337.262 464.418
L349.53 463.087
L361.798 462.072
L374.066 460.652
L386.333 459.693
L398.601 458.776
L410.869 457.776
L423.136 456.967
L435.404 456.135
L447.672 455.417
L459.94 454.617
L472.207 453.89
L484.475 453.304
L496.743 452.683
L509.01 452.163
L521.278 451.535
L533.546 450.953
L545.813 450.522" style="fill:none;stroke:#008000;stroke-linecap:square;stroke-width:1.5;"/>
   </g>
   <g id="line2d_63">
    <path clip-path="url(#p354f975b17)" d="
M67.373 781.049
M111.068 577
L116.444 566.768
L128.712 549.59
L140.979 536.182
L153.247 525.315
L165.515 517.351
L177.782 510.218
L190.05 504.512
L202.318 499.158
L214.585 494.637
L226.853 491.19
L239.121 487.648
L251.389 484.924
L263.656 482.316
L275.924 480.043
L288.192 477.741
L300.459 475.573
L312.727 474.031
L324.995 472.486
L337.262 470.767
L349.53 469.409
L361.798 468.357
L374.066 466.924
L386.333 465.926
L398.601 464.983
L410.869 463.963
L423.136 463.122
L435.404 462.268
L447.672 461.54
L459.94 460.706
L472.207 459.968
L484.475 459.369
L496.743 458.726
L509.01 458.185
L521.278 457.557
L533.546 456.95
L545.813 456.507" style="fill:none;stroke:#000000;stroke-dasharray:6.000000,6.000000;stroke-dashoffset:0.0;stroke-width:1.5;"/>
   </g>
   <g id="line2d_64">
    <path clip-path="url(#p354f975b17)" d="
M67.373 459.69
L79.6407 458.564
L91.9084 457.285
L104.176 457.52
L116.444 456.908
L128.712 456.713
L140.979 456.71
L153.247 456.311
L165.515 456.015
L177.782 455.877
L190.05 455.595
L202.318 455.382
L214.585 455.141
L226.853 455.22
L239.121 455.157
L251.389 454.742
L263.656 455.14
L275.924 454.553
L288.192 454.448
L300.459 454.585
L312.727 453.785
L324.995 454.128
L337.262 453.783
L349.53 453.365
L361.798 453.549
L374.066 452.509
L386.333 452.881
L398.601 452.802
L410.869 452.515
L423.136 452.698
L435.404 452.532
L447.672 452.093
L459.94 452.333
L472.207 452.012
L484.475 451.754
L496.743 451.8
L509.01 451.908
L521.278 451.324
L533.546 451.472
L545.813 451.37" style="fill:none;stroke:#0000ff;stroke-dasharray:6.000000,6.000000;stroke-dashoffset:0.0;stroke-width:1.5;"/>
   </g>
   <g id="matplotlib.axis_3">
    <g id="xtick_7">
     <g id="line2d_65">
      <path clip-path="url(#p354f975b17)" d="
M55.1053 527.94
L55.1053 297.18" style="fill:none;stroke:#000000;stroke-dasharray:1.000000,3.000000;stroke-dashoffset:0.0;stroke-width:0.5;"/>
     </g>
     <g id="line2d_66">
      <g>
       <use style="stroke:#000000;stroke-width:0.5;" x="55.1053125" xlink:href="#m93b0483c22" y="527.94"/>
      </g>
     </g>
     <g id="line2d_67">
      <g>
       <use style="stroke:#000000;stroke-width:0.5;" x="55.1053125" xlink:href="#m741efc42ff" y="297.18"/>
      </g>
     </g>
     <g id="text_22">
      <!-- 0 -->
      <g transform="translate(52.305 540.529375)scale(0.12 -0.12)">
       <use xlink:href="#ArialMT-30"/>
      </g>
     </g>
    </g>
    <g id="xtick_8">
     <g id="line2d_68">
      <path clip-path="url(#p354f975b17)" d="
M153.247 527.94
L153.247 297.18" style="fill:none;stroke:#000000;stroke-dasharray:1.000000,3.000000;stroke-dashoffset:0.0;stroke-width:0.5;"/>
     </g>
     <g id="line2d_69">
      <g>
       <use style="stroke:#000000;stroke-width:0.5;" x="153.2469375" xlink:href="#m93b0483c22" y="527.94"/>
      </g>
     </g>
     <g id="line2d_70">
      <g>
       <use style="stroke:#000000;stroke-width:0.5;" x="153.2469375" xlink:href="#m741efc42ff" y="297.18"/>
      </g>
     </g>
     <g id="text_23">
      <!-- 1 -->
      <g transform="translate(151.665375 540.529375)scale(0.12 -0.12)">
       <use xlink:href="#ArialMT-31"/>
      </g>
     </g>
    </g>
    <g id="xtick_9">
     <g id="line2d_71">
      <path clip-path="url(#p354f975b17)" d="
M251.389 527.94
L251.389 297.18" style="fill:none;stroke:#000000;stroke-dasharray:1.000000,3.000000;stroke-dashoffset:0.0;stroke-width:0.5;"/>
     </g>
     <g id="line2d_72">
      <g>
       <use style="stroke:#000000;stroke-width:0.5;" x="251.3885625" xlink:href="#m93b0483c22" y="527.94"/>
      </g>
     </g>
     <g id="line2d_73">
      <g>
       <use style="stroke:#000000;stroke-width:0.5;" x="251.3885625" xlink:href="#m741efc42ff" y="297.18"/>
      </g>
     </g>
     <g id="text_24">
      <!-- 2 -->
      <g transform="translate(248.5441875 540.529375)scale(0.12 -0.12)">
       <use xlink:href="#ArialMT-32"/>
      </g>
     </g>
    </g>
    <g id="xtick_10">
     <g id="line2d_74">
      <path clip-path="url(#p354f975b17)" d="
M349.53 527.94
L349.53 297.18" style="fill:none;stroke:#000000;stroke-dasharray:1.000000,3.000000;stroke-dashoffset:0.0;stroke-width:0.5;"/>
     </g>
     <g id="line2d_75">
      <g>
       <use style="stroke:#000000;stroke-width:0.5;" x="349.5301875" xlink:href="#m93b0483c22" y="527.94"/>
      </g>
     </g>
     <g id="line2d_76">
      <g>
       <use style="stroke:#000000;stroke-width:0.5;" x="349.5301875" xlink:href="#m741efc42ff" y="297.18"/>
      </g>
     </g>
     <g id="text_25">
      <!-- 3 -->
      <g transform="translate(346.7176875 540.529375)scale(0.12 -0.12)">
       <use xlink:href="#ArialMT-33"/>
      </g>
     </g>
    </g>
    <g id="xtick_11">
     <g id="line2d_77">
      <path clip-path="url(#p354f975b17)" d="
M447.672 527.94
L447.672 297.18" style="fill:none;stroke:#000000;stroke-dasharray:1.000000,3.000000;stroke-dashoffset:0.0;stroke-width:0.5;"/>
     </g>
     <g id="line2d_78">
      <g>
       <use style="stroke:#000000;stroke-width:0.5;" x="447.6718125" xlink:href="#m93b0483c22" y="527.94"/>
      </g>
     </g>
     <g id="line2d_79">
      <g>
       <use style="stroke:#000000;stroke-width:0.5;" x="447.6718125" xlink:href="#m741efc42ff" y="297.18"/>
      </g>
     </g>
     <g id="text_26">
      <!-- 4 -->
      <g transform="translate(444.700875 540.529375)scale(0.12 -0.12)">
       <use xlink:href="#ArialMT-34"/>
      </g>
     </g>
    </g>
    <g id="xtick_12">
     <g id="line2d_80">
      <path clip-path="url(#p354f975b17)" d="
M545.813 527.94
L545.813 297.18" style="fill:none;stroke:#000000;stroke-dasharray:1.000000,3.000000;stroke-dashoffset:0.0;stroke-width:0.5;"/>
     </g>
     <g id="line2d_81">
      <g>
       <use style="stroke:#000000;stroke-width:0.5;" x="545.8134375" xlink:href="#m93b0483c22" y="527.94"/>
      </g>
     </g>
     <g id="line2d_82">
      <g>
       <use style="stroke:#000000;stroke-width:0.5;" x="545.8134375" xlink:href="#m741efc42ff" y="297.18"/>
      </g>
     </g>
     <g id="text_27">
      <!-- 5 -->
      <g transform="translate(542.96625 540.529375)scale(0.12 -0.12)">
       <use xlink:href="#ArialMT-35"/>
      </g>
     </g>
    </g>
    <g id="text_28">
     <!-- Dirichlet symmetric $\alpha$ -->
     <g transform="translate(244.239375 556.554375)scale(0.12 -0.12)">
      <use transform="translate(0.0 0.421875)" xlink:href="#ArialMT-44"/>
      <use transform="translate(72.216796875 0.421875)" xlink:href="#ArialMT-69"/>
      <use transform="translate(94.43359375 0.421875)" xlink:href="#ArialMT-72"/>
      <use transform="translate(127.734375 0.421875)" xlink:href="#ArialMT-69"/>
      <use transform="translate(149.951171875 0.421875)" xlink:href="#ArialMT-63"/>
      <use transform="translate(199.951171875 0.421875)" xlink:href="#ArialMT-68"/>
      <use transform="translate(255.56640625 0.421875)" xlink:href="#ArialMT-6c"/>
      <use transform="translate(277.783203125 0.421875)" xlink:href="#ArialMT-65"/>
      <use transform="translate(333.3984375 0.421875)" xlink:href="#ArialMT-74"/>
      <use transform="translate(361.181640625 0.421875)" xlink:href="#ArialMT-20"/>
      <use transform="translate(388.96484375 0.421875)" xlink:href="#ArialMT-73"/>
      <use transform="translate(438.96484375 0.421875)" xlink:href="#ArialMT-79"/>
      <use transform="translate(488.96484375 0.421875)" xlink:href="#ArialMT-6d"/>
      <use transform="translate(572.265625 0.421875)" xlink:href="#ArialMT-6d"/>
      <use transform="translate(655.56640625 0.421875)" xlink:href="#ArialMT-65"/>
      <use transform="translate(711.181640625 0.421875)" xlink:href="#ArialMT-74"/>
      <use transform="translate(738.96484375 0.421875)" xlink:href="#ArialMT-72"/>
      <use transform="translate(772.265625 0.421875)" xlink:href="#ArialMT-69"/>
      <use transform="translate(794.482421875 0.421875)" xlink:href="#ArialMT-63"/>
      <use transform="translate(844.482421875 0.421875)" xlink:href="#ArialMT-20"/>
      <use transform="translate(872.265625 0.421875)" xlink:href="#Cmmi10-ae"/>
     </g>
    </g>
   </g>
   <g id="matplotlib.axis_4">
    <g id="ytick_7">
     <g id="line2d_83">
      <path clip-path="url(#p354f975b17)" d="
M55.1053 504.864
L545.813 504.864" style="fill:none;stroke:#000000;stroke-dasharray:1.000000,3.000000;stroke-dashoffset:0.0;stroke-width:0.5;"/>
     </g>
     <g id="line2d_84">
      <g>
       <use style="stroke:#000000;stroke-width:0.5;" x="55.1053125" xlink:href="#m728421d6d4" y="504.864"/>
      </g>
     </g>
     <g id="line2d_85">
      <g>
       <use style="stroke:#000000;stroke-width:0.5;" x="545.8134375" xlink:href="#mcb0005524f" y="504.864"/>
      </g>
     </g>
     <g id="text_29">
      <!-- 0.2 -->
      <defs>
       <path d="
M52.8281 31.2031
L5.5625 31.2031
L5.5625 39.4062
L52.8281 39.4062
z
" id="ArialMT-2212"/>
      </defs>
      <g transform="translate(28.7159375 507.9661875)scale(0.12 -0.12)">
       <use xlink:href="#ArialMT-2212"/>
       <use x="58.3984375" xlink:href="#ArialMT-30"/>
       <use x="114.013671875" xlink:href="#ArialMT-2e"/>
       <use x="141.796875" xlink:href="#ArialMT-32"/>
      </g>
     </g>
    </g>
    <g id="ytick_8">
     <g id="line2d_86">
      <path clip-path="url(#p354f975b17)" d="
M55.1053 458.712
L545.813 458.712" style="fill:none;stroke:#000000;stroke-dasharray:1.000000,3.000000;stroke-dashoffset:0.0;stroke-width:0.5;"/>
     </g>
     <g id="line2d_87">
      <g>
       <use style="stroke:#000000;stroke-width:0.5;" x="55.1053125" xlink:href="#m728421d6d4" y="458.712"/>
      </g>
     </g>
     <g id="line2d_88">
      <g>
       <use style="stroke:#000000;stroke-width:0.5;" x="545.8134375" xlink:href="#mcb0005524f" y="458.712"/>
      </g>
     </g>
     <g id="text_30">
      <!-- 0.0 -->
      <g transform="translate(35.4978125 461.8141875)scale(0.12 -0.12)">
       <use xlink:href="#ArialMT-30"/>
       <use x="55.615234375" xlink:href="#ArialMT-2e"/>
       <use x="83.3984375" xlink:href="#ArialMT-30"/>
      </g>
     </g>
    </g>
    <g id="ytick_9">
     <g id="line2d_89">
      <path clip-path="url(#p354f975b17)" d="
M55.1053 412.56
L545.813 412.56" style="fill:none;stroke:#000000;stroke-dasharray:1.000000,3.000000;stroke-dashoffset:0.0;stroke-width:0.5;"/>
     </g>
     <g id="line2d_90">
      <g>
       <use style="stroke:#000000;stroke-width:0.5;" x="55.1053125" xlink:href="#m728421d6d4" y="412.56"/>
      </g>
     </g>
     <g id="line2d_91">
      <g>
       <use style="stroke:#000000;stroke-width:0.5;" x="545.8134375" xlink:href="#mcb0005524f" y="412.56"/>
      </g>
     </g>
     <g id="text_31">
      <!-- 0.2 -->
      <g transform="translate(35.5559375 415.6621875)scale(0.12 -0.12)">
       <use xlink:href="#ArialMT-30"/>
       <use x="55.615234375" xlink:href="#ArialMT-2e"/>
       <use x="83.3984375" xlink:href="#ArialMT-32"/>
      </g>
     </g>
    </g>
    <g id="ytick_10">
     <g id="line2d_92">
      <path clip-path="url(#p354f975b17)" d="
M55.1053 366.408
L545.813 366.408" style="fill:none;stroke:#000000;stroke-dasharray:1.000000,3.000000;stroke-dashoffset:0.0;stroke-width:0.5;"/>
     </g>
     <g id="line2d_93">
      <g>
       <use style="stroke:#000000;stroke-width:0.5;" x="55.1053125" xlink:href="#m728421d6d4" y="366.408"/>
      </g>
     </g>
     <g id="line2d_94">
      <g>
       <use style="stroke:#000000;stroke-width:0.5;" x="545.8134375" xlink:href="#mcb0005524f" y="366.408"/>
      </g>
     </g>
     <g id="text_32">
      <!-- 0.4 -->
      <g transform="translate(35.5034375 369.5101875)scale(0.12 -0.12)">
       <use xlink:href="#ArialMT-30"/>
       <use x="55.615234375" xlink:href="#ArialMT-2e"/>
       <use x="83.3984375" xlink:href="#ArialMT-34"/>
      </g>
     </g>
    </g>
    <g id="ytick_11">
     <g id="line2d_95">
      <path clip-path="url(#p354f975b17)" d="
M55.1053 320.256
L545.813 320.256" style="fill:none;stroke:#000000;stroke-dasharray:1.000000,3.000000;stroke-dashoffset:0.0;stroke-width:0.5;"/>
     </g>
     <g id="line2d_96">
      <g>
       <use style="stroke:#000000;stroke-width:0.5;" x="55.1053125" xlink:href="#m728421d6d4" y="320.256"/>
      </g>
     </g>
     <g id="line2d_97">
      <g>
       <use style="stroke:#000000;stroke-width:0.5;" x="545.8134375" xlink:href="#mcb0005524f" y="320.256"/>
      </g>
     </g>
     <g id="text_33">
      <!-- 0.6 -->
      <defs>
       <path d="
M49.75 54.0469
L41.0156 53.375
Q39.8438 58.5469 37.7031 60.8906
Q34.125 64.6562 28.9062 64.6562
Q24.7031 64.6562 21.5312 62.3125
Q17.3906 59.2812 14.9844 53.4688
Q12.5938 47.6562 12.5 36.9219
Q15.6719 41.75 20.2656 44.0938
Q24.8594 46.4375 29.8906 46.4375
Q38.6719 46.4375 44.8438 39.9688
Q51.0312 33.5 51.0312 23.25
Q51.0312 16.5 48.125 10.7188
Q45.2188 4.9375 40.1406 1.85938
Q35.0625 -1.21875 28.6094 -1.21875
Q17.625 -1.21875 10.6875 6.85938
Q3.76562 14.9375 3.76562 33.5
Q3.76562 54.25 11.4219 63.6719
Q18.1094 71.875 29.4375 71.875
Q37.8906 71.875 43.2812 67.1406
Q48.6875 62.4062 49.75 54.0469
M13.875 23.1875
Q13.875 18.6562 15.7969 14.5
Q17.7188 10.3594 21.1875 8.17188
Q24.6562 6 28.4688 6
Q34.0312 6 38.0312 10.4844
Q42.0469 14.9844 42.0469 22.7031
Q42.0469 30.125 38.0781 34.3906
Q34.125 38.6719 28.125 38.6719
Q22.1719 38.6719 18.0156 34.3906
Q13.875 30.125 13.875 23.1875" id="ArialMT-36"/>
      </defs>
      <g transform="translate(35.4734375 323.3581875)scale(0.12 -0.12)">
       <use xlink:href="#ArialMT-30"/>
       <use x="55.615234375" xlink:href="#ArialMT-2e"/>
       <use x="83.3984375" xlink:href="#ArialMT-36"/>
      </g>
     </g>
    </g>
    <g id="text_34">
     <!-- Bias -->
     <g transform="translate(21.3309375 423.560625)rotate(-90.0)scale(0.12 -0.12)">
      <use xlink:href="#ArialMT-42"/>
      <use x="66.69921875" xlink:href="#ArialMT-69"/>
      <use x="88.916015625" xlink:href="#ArialMT-61"/>
      <use x="144.53125" xlink:href="#ArialMT-73"/>
     </g>
    </g>
   </g>
   <g id="patch_9">
    <path d="
M55.1053 297.18
L545.813 297.18" style="fill:none;stroke:#000000;"/>
   </g>
   <g id="patch_10">
    <path d="
M545.813 527.94
L545.813 297.18" style="fill:none;stroke:#000000;"/>
   </g>
   <g id="patch_11">
    <path d="
M55.1053 527.94
L545.813 527.94" style="fill:none;stroke:#000000;"/>
   </g>
   <g id="patch_12">
    <path d="
M55.1053 527.94
L55.1053 297.18" style="fill:none;stroke:#000000;"/>
   </g>
   <g id="legend_2">
    <g id="patch_13">
     <path d="
M61.2849 349.862
L538.613 349.862
L538.613 304.38
L61.2849 304.38
L61.2849 349.862
z
" style="fill:#ffffff;stroke:#000000;"/>
    </g>
    <g id="line2d_98">
     <path d="
M71.3649 315.45
L91.5249 315.45" style="fill:none;stroke:#000000;stroke-linecap:square;stroke-width:1.5;"/>
    </g>
    <g id="line2d_99"/>
    <g id="text_35">
     <!-- Plugin -->
     <g transform="translate(107.3649375 320.49)scale(0.144 -0.144)">
      <use xlink:href="#ArialMT-50"/>
      <use x="66.69921875" xlink:href="#ArialMT-6c"/>
      <use x="88.916015625" xlink:href="#ArialMT-75"/>
      <use x="144.53125" xlink:href="#ArialMT-67"/>
      <use x="200.146484375" xlink:href="#ArialMT-69"/>
      <use x="222.36328125" xlink:href="#ArialMT-6e"/>
     </g>
    </g>
    <g id="line2d_100">
     <path d="
M71.3649 336.031
L91.5249 336.031" style="fill:none;stroke:#0000ff;stroke-linecap:square;stroke-width:1.5;"/>
    </g>
    <g id="line2d_101"/>
    <g id="text_36">
     <!-- Bayes 0.5 -->
     <g transform="translate(107.3649375 341.07075)scale(0.144 -0.144)">
      <use xlink:href="#ArialMT-42"/>
      <use x="66.69921875" xlink:href="#ArialMT-61"/>
      <use x="122.314453125" xlink:href="#ArialMT-79"/>
      <use x="172.314453125" xlink:href="#ArialMT-65"/>
      <use x="227.9296875" xlink:href="#ArialMT-73"/>
      <use x="277.9296875" xlink:href="#ArialMT-20"/>
      <use x="305.712890625" xlink:href="#ArialMT-30"/>
      <use x="361.328125" xlink:href="#ArialMT-2e"/>
      <use x="389.111328125" xlink:href="#ArialMT-35"/>
     </g>
    </g>
    <g id="line2d_102">
     <path d="
M203.946 315.45
L224.106 315.45" style="fill:none;stroke:#ff0000;stroke-linecap:square;stroke-width:1.5;"/>
    </g>
    <g id="line2d_103"/>
    <g id="text_37">
     <!-- Bayes 1.5 -->
     <g transform="translate(239.9461875 320.49)scale(0.144 -0.144)">
      <use xlink:href="#ArialMT-42"/>
      <use x="66.69921875" xlink:href="#ArialMT-61"/>
      <use x="122.314453125" xlink:href="#ArialMT-79"/>
      <use x="172.314453125" xlink:href="#ArialMT-65"/>
      <use x="227.9296875" xlink:href="#ArialMT-73"/>
      <use x="277.9296875" xlink:href="#ArialMT-20"/>
      <use x="305.712890625" xlink:href="#ArialMT-31"/>
      <use x="361.328125" xlink:href="#ArialMT-2e"/>
      <use x="389.111328125" xlink:href="#ArialMT-35"/>
     </g>
    </g>
    <g id="line2d_104">
     <path d="
M203.946 336.031
L224.106 336.031" style="fill:none;stroke:#bf00bf;stroke-linecap:square;stroke-width:1.5;"/>
    </g>
    <g id="line2d_105"/>
    <g id="text_38">
     <!-- Bayes 2.5 -->
     <g transform="translate(239.9461875 341.07075)scale(0.144 -0.144)">
      <use xlink:href="#ArialMT-42"/>
      <use x="66.69921875" xlink:href="#ArialMT-61"/>
      <use x="122.314453125" xlink:href="#ArialMT-79"/>
      <use x="172.314453125" xlink:href="#ArialMT-65"/>
      <use x="227.9296875" xlink:href="#ArialMT-73"/>
      <use x="277.9296875" xlink:href="#ArialMT-20"/>
      <use x="305.712890625" xlink:href="#ArialMT-32"/>
      <use x="361.328125" xlink:href="#ArialMT-2e"/>
      <use x="389.111328125" xlink:href="#ArialMT-35"/>
     </g>
    </g>
    <g id="line2d_106">
     <path d="
M336.527 315.45
L356.687 315.45" style="fill:none;stroke:#008000;stroke-linecap:square;stroke-width:1.5;"/>
    </g>
    <g id="line2d_107"/>
    <g id="text_39">
     <!-- Bayes 3.5 -->
     <g transform="translate(372.5274375 320.49)scale(0.144 -0.144)">
      <use xlink:href="#ArialMT-42"/>
      <use x="66.69921875" xlink:href="#ArialMT-61"/>
      <use x="122.314453125" xlink:href="#ArialMT-79"/>
      <use x="172.314453125" xlink:href="#ArialMT-65"/>
      <use x="227.9296875" xlink:href="#ArialMT-73"/>
      <use x="277.9296875" xlink:href="#ArialMT-20"/>
      <use x="305.712890625" xlink:href="#ArialMT-33"/>
      <use x="361.328125" xlink:href="#ArialMT-2e"/>
      <use x="389.111328125" xlink:href="#ArialMT-35"/>
     </g>
    </g>
    <g id="line2d_108">
     <path d="
M336.527 335.988
L356.687 335.988" style="fill:none;stroke:#000000;stroke-dasharray:6.000000,6.000000;stroke-dashoffset:0.0;stroke-width:1.5;"/>
    </g>
    <g id="line2d_109"/>
    <g id="text_40">
     <!-- Bayes 4.5 -->
     <g transform="translate(372.5274375 341.028)scale(0.144 -0.144)">
      <use xlink:href="#ArialMT-42"/>
      <use x="66.69921875" xlink:href="#ArialMT-61"/>
      <use x="122.314453125" xlink:href="#ArialMT-79"/>
      <use x="172.314453125" xlink:href="#ArialMT-65"/>
      <use x="227.9296875" xlink:href="#ArialMT-73"/>
      <use x="277.9296875" xlink:href="#ArialMT-20"/>
      <use x="305.712890625" xlink:href="#ArialMT-34"/>
      <use x="361.328125" xlink:href="#ArialMT-2e"/>
      <use x="389.111328125" xlink:href="#ArialMT-35"/>
     </g>
    </g>
    <g id="line2d_110">
     <path d="
M469.109 315.45
L489.269 315.45" style="fill:none;stroke:#0000ff;stroke-dasharray:6.000000,6.000000;stroke-dashoffset:0.0;stroke-width:1.5;"/>
    </g>
    <g id="line2d_111"/>
    <g id="text_41">
     <!-- NSB -->
     <g transform="translate(505.1086875 320.49)scale(0.144 -0.144)">
      <use xlink:href="#ArialMT-4e"/>
      <use x="72.216796875" xlink:href="#ArialMT-53"/>
      <use x="138.916015625" xlink:href="#ArialMT-42"/>
     </g>
    </g>
   </g>
  </g>
 </g>
 <defs>
  <clipPath id="p376806e7c1">
   <rect height="230.76" width="490.708125" x="55.1053125" y="18.36"/>
  </clipPath>
  <clipPath id="p354f975b17">
   <rect height="230.76" width="490.708125" x="55.1053125" y="297.18"/>
  </clipPath>
 </defs>
</svg>
